<?xml version="1.0" encoding="utf-8"?>
<!-- Generator: Adobe Illustrator 16.0.0, SVG Export Plug-In . SVG Version: 6.00 Build 0)  -->
<!DOCTYPE svg PUBLIC "-//W3C//DTD SVG 1.1//EN" "http://www.w3.org/Graphics/SVG/1.1/DTD/svg11.dtd">
<svg version="1.1" id="Layer_4" xmlns="http://www.w3.org/2000/svg" xmlns:xlink="http://www.w3.org/1999/xlink" x="0px" y="0px"
	 width="595px" height="341px" viewBox="0 0 595 341" enable-background="new 0 0 595 341" xml:space="preserve">
<g>
	<path fill="#FFFFFF" d="M373.525,38.759c-2.07,4.837-5.613,10.095-10.612,15.789c-5.007,5.694-11.647,10.871-19.93,15.53
		s-18.208,8.542-29.766,11.647c-11.567,3.106-25.107,4.659-40.638,4.659c-5.872,0-12.165-0.17-18.895-0.518
		c-6.729-0.34-13.548-0.857-20.448-1.553c-23.473-2.41-42.279-4.4-56.426-5.953c-14.155-1.553-26.401-2.33-36.755-2.33
		c-14.843,0-27.008,1.213-36.496,3.624c-9.496,2.418-17.002,5.953-22.519,10.612c-5.524,4.659-9.318,10.272-11.389,16.824
		c-2.071,6.56-3.106,14.155-3.106,22.777c0,5.525,1.116,10.871,3.365,16.048c2.24,5.177,3.365,9.496,3.365,12.942
		c0,0.696-0.437,1.125-1.294,1.294c-0.865,0.178-1.642,0.259-2.329,0.259c-3.802-0.34-7.685-1.036-11.648-2.071
		c-3.972-1.035-7.684-2.847-11.13-5.436c-3.454-2.588-6.301-6.123-8.542-10.612c-2.249-4.481-3.365-10.175-3.365-17.083
		c0-19.672,8.104-35.372,24.331-47.108c16.218-11.729,39.513-18.119,69.886-19.154c14.834-0.34,33.212-0.429,55.132-0.259
		c21.912,0.178,44.431-0.34,67.557-1.553c23.117-1.205,45.466-3.446,67.039-6.729c21.564-3.276,39.602-8.542,54.097-15.789
		c0.688,0,1.035,0.518,1.035,1.553C374.042,37.554,373.865,38.42,373.525,38.759z M191.822,96.739
		c1.723,1.731,2.588,3.802,2.588,6.212c0,2.418-0.606,4.918-1.812,7.506c-1.213,2.588-2.678,5.266-4.4,8.024
		c-0.696,1.036-1.642,2.677-2.847,4.918c-1.213,2.249-2.847,5.524-4.918,9.836c-2.071,4.319-4.918,10.094-8.542,17.342
		c-3.624,7.248-8.024,16.565-13.201,27.955c-12.424,26.919-21.92,50.044-28.472,69.368c-6.56,19.332-9.835,34.506-9.835,45.555
		c0,2.07,0.518,4.141,1.553,6.212s2.152,4.141,3.365,6.212c1.206,2.071,2.33,4.053,3.365,5.953c1.035,1.893,1.553,3.535,1.553,4.918
		c0,0.34-0.259,0.857-0.776,1.553c-0.518,0.688-1.125,1.035-1.812,1.035c-0.695,0-2.661-0.437-5.913-1.294
		c-3.252-0.866-6.738-2.847-10.458-5.953c-3.721-3.106-7.094-7.685-10.135-13.719c-3.042-6.042-4.554-14.236-4.554-24.589
		c0-14.495,1.941-28.642,5.824-42.449c3.882-13.799,9.148-28.124,15.789-42.967c6.641-14.834,14.365-30.542,23.166-47.108
		c8.801-16.566,18.2-34.684,28.213-54.356c0.688-1.723,1.205-2.669,1.553-2.847c0.34-0.17,0.857-0.259,1.553-0.259
		c-0.696,0,1.116,1.125,5.436,3.365C182.415,89.411,186.985,92.597,191.822,96.739z"/>
	<path fill="#FFFFFF" d="M281.897,108.645c2.758-1.375,6.034-2.07,9.835-2.07c4.481,0,8.801,1.294,12.942,3.882
		c4.142,2.588,7.676,5.783,10.612,9.577c2.928,3.802,5.258,8.024,6.989,12.683c1.723,4.659,2.588,9.06,2.588,13.201
		c0,8.283-1.731,16.396-5.177,24.331c-3.454,7.943-8.801,16.825-16.048,26.66c-7.248,9.836-16.565,21.055-27.955,33.649
		c-11.389,12.602-25.026,27.695-40.896,45.296c-0.348,0-1.731-0.081-4.142-0.259c-2.418-0.17-5.007-0.946-7.765-2.33
		c-2.767-1.375-5.266-3.535-7.506-6.471c-2.249-2.928-3.365-7.159-3.365-12.683c0-1.375,0.081-3.365,0.259-5.953
		c0.169-2.588,0.598-4.223,1.294-4.918c-3.454,3.802-7.425,8.202-11.906,13.201c-4.489,5.007-10.354,11.478-17.601,19.413
		c-0.348,0-1.731-0.081-4.142-0.259c-2.418-0.17-4.917-0.946-7.506-2.33c-2.588-1.375-4.999-3.535-7.248-6.471
		c-2.241-2.928-3.365-7.159-3.365-12.683c0-5.177,0.979-10.782,2.928-16.824c1.958-6.034,4.255-12.166,6.916-18.377
		c2.653-6.212,5.306-12.335,7.943-18.377c2.637-6.034,4.813-11.648,6.544-16.824c0.34-0.688,0.518-1.117,0.518-1.294
		c0-0.17,0.17-0.599,0.518-1.294c0-0.34,0.259-1.464,0.776-3.365c0.518-1.893,1.117-4.052,1.812-6.471
		c0.688-2.411,1.294-4.74,1.812-6.989c0.518-2.24,0.776-3.882,0.776-4.918v-0.518c0.34,0.348,0.259,0.178-0.259-0.518
		c-0.518-0.688,0.081-1.375,1.812-2.071c2.07,0,4.481,0.866,7.247,2.588c2.758,1.731,5.436,3.883,8.024,6.471
		s4.829,5.436,6.73,8.542c1.893,3.106,2.847,6.212,2.847,9.318c0,0.696-0.089,1.294-0.259,1.812
		c-0.178,0.518-0.259,1.125-0.259,1.812c-0.696,2.07-3.025,6.301-6.989,12.683c-3.972,6.39-8.202,13.29-12.683,20.707
		c-4.489,7.425-8.542,14.584-12.165,21.483c-3.624,6.908-5.436,11.907-5.436,15.013c0,1.731,0.34,2.847,1.019,3.365
		c0.68,0.518,0.857,0.776,0.518,0.776c1.02-1.035,3.414-3.624,7.175-7.765c3.753-4.141,8.024-9.14,12.804-15.012
		c4.78-5.864,9.73-12.246,14.859-19.154c5.128-6.9,9.569-13.799,13.33-20.707c0.68-1.375,1.715-3.624,3.098-6.73
		c1.375-3.106,2.758-6.382,4.141-9.835c1.375-3.446,2.588-6.9,3.624-10.354c1.035-3.446,1.553-6.552,1.553-9.318
		c0-0.688-0.089-1.205-0.259-1.553c-0.178-0.34-0.259-0.857-0.259-1.553c0.34,0.348,0.259,0.178-0.259-0.518
		c-0.518-0.688,0.081-1.375,1.812-2.071c0.688,0,2.33,0.777,4.918,2.33c2.588,1.553,5.347,3.543,8.283,5.953
		c2.928,2.418,5.605,5.266,8.024,8.542c2.411,3.284,3.624,6.471,3.624,9.577c0,1.731-0.178,3.106-0.518,4.142
		c-0.696,2.07-3.025,6.212-6.989,12.424c-3.972,6.212-8.202,13.031-12.683,20.448c-4.489,7.425-8.542,14.584-12.165,21.483
		c-3.624,6.908-5.436,12.084-5.436,15.53c0,2.766,0.518,4.141,1.553,4.141c1.723-2.07,4.4-5.177,8.024-9.318
		c3.624-4.142,8.711-9.836,15.271-17.083c6.552-7.247,12.505-15.012,17.86-23.295c5.346-8.283,9.917-16.565,13.718-24.849
		c3.793-8.283,6.729-16.217,8.8-23.812c2.071-7.587,3.106-14.317,3.106-20.189c0-4.829-0.955-9.399-2.847-13.718
		c-1.901-4.312-3.882-7.846-5.953-10.612C287.931,114.518,285.003,111.412,281.897,108.645z"/>
	<path fill="#FFFFFF" d="M303.634,269.642c-1.375-2.411-2.07-5.694-2.07-9.836c0-7.587,1.731-16.994,5.176-28.213
		c3.454-11.21,7.417-22.001,11.907-32.354c4.829-12.076,10.523-24.5,17.083-37.272c0.34-0.688,0.599-1.553,0.777-2.588
		c0.169-1.035,1.294-1.553,3.365-1.553c1.375,0,3.187,0.695,5.436,2.071c2.241,1.383,4.311,3.284,6.212,5.694
		c1.893,2.418,3.535,5.007,4.918,7.765c1.375,2.766,2.071,5.354,2.071,7.765c0,2.418-0.518,4.319-1.553,5.694
		c-1.731,3.454-4.4,8.542-8.024,15.271c-3.624,6.73-7.425,13.896-11.389,21.483c-3.972,7.595-7.425,14.932-10.354,22.001
		c-2.936,7.078-4.4,12.683-4.4,16.824c0,1.035,0.34,1.553,1.036,1.553c0.688,0,2.928-1.812,6.729-5.436
		c3.794-3.624,7.846-7.587,12.166-11.907c4.311-4.311,8.364-8.283,12.166-11.906c3.793-3.624,6.034-5.436,6.729-5.436
		c0.688,0,1.375,0.259,2.071,0.776c0.688,0.518,1.035,1.472,1.035,2.847c0,1.731-1.213,4.319-3.624,7.765
		c-6.212,8.63-11.737,15.36-16.565,20.189c-4.837,4.837-9.06,8.372-12.683,10.612c-3.624,2.249-6.649,3.624-9.06,4.142
		c-2.418,0.518-4.319,0.776-5.694,0.776c-0.695,0-2.418-0.259-5.177-0.776C309.159,275.077,306.4,273.095,303.634,269.642z
		 M359.542,126.246c3.106,1.731,5.953,4.23,8.542,7.506c2.588,3.284,3.883,6.819,3.883,10.612c0-0.34-0.089,0.348-0.259,2.071
		c-0.178,1.731-0.607,3.801-1.294,6.212c-0.695,2.418-1.731,4.659-3.106,6.729c-1.383,2.071-3.106,3.106-5.177,3.106
		c-0.348,0-1.472-0.429-3.365-1.294c-1.901-0.857-3.882-2.071-5.953-3.624c-2.071-1.553-3.972-3.276-5.694-5.177
		c-1.731-1.893-2.588-3.705-2.588-5.436v-1.036c0.339-1.035,1.035-2.588,2.07-4.659c1.036-2.071,2.071-4.312,3.106-6.73
		c1.035-2.41,2.151-4.481,3.365-6.212c1.205-1.723,2.33-2.588,3.365-2.588C357.812,125.729,358.847,125.906,359.542,126.246z"/>
	<path fill="#FFFFFF" d="M384.39,233.404c8.623-11.041,17.253-21.225,25.884-30.542c7.247-7.935,14.834-15.959,22.777-24.072
		c7.935-8.105,15.013-14.236,21.225-18.377c5.177,2.418,9.658,4.837,13.459,7.248c3.106,2.07,5.517,4.578,7.248,7.506
		c1.723,2.937,1.723,5.954,0,9.06c-2.767,4.489-6.908,11.478-12.424,20.966c-5.524,9.496-10.531,19.243-15.012,29.248
		c-0.696,1.383-1.731,3.802-3.106,7.248c-2.766,5.873-4.917,10.871-6.471,15.013c-1.553,4.141-1.99,6.56-1.294,7.248
		c0.688,0,1.375-0.17,2.07-0.518c1.723-0.688,4.223-2.24,7.506-4.659c3.276-2.411,6.552-5.258,9.836-8.542
		c3.276-3.276,6.471-6.641,9.577-10.094c3.106-3.446,5.517-6.382,7.248-8.801c0-0.339,0.34-0.688,1.035-1.035
		c1.036-1.035,2.071-1.205,3.106-0.518c0.688,0.348,1.464,1.294,2.33,2.847c0.857,1.553-0.437,4.23-3.883,8.024
		c-5.873,7.248-11.647,13.548-17.342,18.895c-5.695,5.354-9.577,8.889-11.648,10.612c-4.837,3.454-8.8,5.436-11.906,5.953
		s-5.524,0.599-7.248,0.259c-1.383-0.348-3.106-0.857-5.177-1.553c-4.837-2.411-7.506-6.382-8.024-11.907
		c-0.518-5.517,0.081-11.559,1.812-18.119c1.375-6.899,3.882-15.182,7.506-24.848c3.624-9.658,8.881-20.877,15.789-33.649
		c-7.943,8.631-15.878,17.949-23.813,27.955c-6.908,8.63-14.155,18.377-21.743,29.249c-7.595,10.871-14.672,22.001-21.224,33.39
		c-5.177-0.348-9.658-1.553-13.46-3.624c-3.106-1.723-5.516-4.74-7.247-9.059c-1.723-4.312-1.375-10.435,1.035-18.377
		c3.106-10.006,7.595-20.27,13.459-30.802c5.864-10.523,10.693-20.618,14.495-30.284c0.339-1.375,1.116-3.535,2.329-6.471
		c1.206-2.928,2.33-5.864,3.365-8.8c1.035-2.928,1.812-5.347,2.33-7.248c0.518-1.893,0.598-2.669,0.259-2.329v-0.518v-0.518
		c0-0.688,0.518-1.035,1.553-1.035c0.688-0.34,1.375-0.34,2.071,0c0.688,0.348,1.375,0.695,2.071,1.035
		c0.688,0.348,1.205,0.696,1.553,1.036c0.34,0.348,0.857,0.695,1.553,1.035c4.142,2.766,8.283,6.56,12.424,11.389
		c4.141,4.837,4.999,10.184,2.588,16.048c-0.348,0.696-0.866,1.901-1.553,3.624c-0.696,1.731-2.936,5.524-6.729,11.389
		c-4.142,5.872-8.113,11.647-11.907,17.342C388.871,226.416,386.113,230.646,384.39,233.404z"/>
	<path fill="#FFFFFF" d="M468.246,258.252c-0.34-1.723-0.599-3.276-0.777-4.659c-0.169-1.375-0.259-2.928-0.259-4.659
		c0-5.517,0.777-11.041,2.33-16.565c1.553-5.517,3.543-10.693,5.953-15.53c2.419-4.829,4.999-9.229,7.765-13.201
		c2.758-3.963,5.347-7.328,7.765-10.095c4.481-4.829,8.801-9.059,12.942-12.683c4.141-3.624,7.588-6.471,10.354-8.542
		c3.445-2.41,6.553-4.311,9.318-5.694c4.828-2.41,8.801-3.624,11.906-3.624c2.758,0,5.605,0.695,8.541,2.071
		c2.928,1.383,5.695,3.106,8.283,5.176c2.588,2.071,4.658,4.23,6.213,6.471c1.553,2.249,2.328,4.061,2.328,5.436
		c0,7.595-1.9,14.673-5.693,21.225c-3.803,6.56-8.541,12.254-14.236,17.083c-5.695,4.837-11.648,8.631-17.859,11.389
		c-6.213,2.766-11.906,4.141-17.084,4.141c-2.418,0-4.141-0.17-5.176-0.518c-2.766,6.908-4.142,12.942-4.142,18.119
		c0,4.141,0.599,7.247,1.812,9.318c1.205,2.071,2.5,3.543,3.883,4.4c1.375,0.865,2.758,1.213,4.141,1.035
		c1.375-0.17,2.41-0.259,3.107-0.259c4.828,0,9.834-1.812,15.012-5.436c5.176-3.624,10.094-7.506,14.754-11.647
		c4.658-4.142,8.881-8.024,12.684-11.648c3.793-3.624,6.898-5.436,9.316-5.436c0.688,0,1.375,0.178,2.072,0.518
		c0.688,0.348,1.035,1.383,1.035,3.106c0,1.035-0.695,2.249-2.07,3.624c-8.979,9.318-16.656,17.261-23.037,23.813
		c-6.391,6.56-10.961,10.184-13.719,10.871c-7.943,2.758-15.709,4.142-23.295,4.142c-10.014,0-18.208-2.508-24.59-7.506
		C471.44,267.49,468.246,262.742,468.246,258.252z M540.201,205.968c3.795-4.481,6.473-8.024,8.025-10.612s2.328-4.57,2.328-5.953
		c0-1.723-1.213-2.588-3.623-2.588c-3.801,0.695-7.766,2.418-11.906,5.177c-3.803,2.418-8.113,6.042-12.941,10.871
		c-4.838,4.837-10.014,11.736-15.531,20.707h2.07c3.795,0,8.195-1.116,13.201-3.365
		C526.824,217.963,532.955,213.215,540.201,205.968z"/>
</g>
</svg>
